<?xml version="1.0" encoding="UTF-8" standalone="no"?><!-- Generator: Gravit.io --><svg xmlns="http://www.w3.org/2000/svg" xmlns:xlink="http://www.w3.org/1999/xlink" style="isolation:isolate" viewBox="0 0 94 32" width="94pt" height="32pt"><defs><clipPath id="_clipPath_f4jHpTzFvQxGXoQFu3CnhJupElBDDVFn"><rect width="94" height="32"/></clipPath></defs><g clip-path="url(#_clipPath_f4jHpTzFvQxGXoQFu3CnhJupElBDDVFn)"><g><path d=" M 34.426 -0.081 C 32.761 -1.746 30.149 -1.833 28.483 -0.168 C 25.812 2.504 27.853 3.426 26.395 4.338 C 24.898 5.274 23.34 3.583 21.271 3.353 C 19.818 3.192 18.514 3.239 16.792 4.042 C 16.738 4.067 16.687 4.093 16.637 4.119 L 16.408 3.891 C 15.611 3.093 14.316 3.093 13.518 3.891 L 11.599 5.809 C 10.801 6.608 10.801 7.902 11.599 8.7 L 11.676 8.777 L 13.282 10.383 L 14.913 12.013 L 22.332 19.432 L 23.963 21.064 L 25.569 22.67 L 25.646 22.746 C 26.444 23.545 27.738 23.545 28.537 22.746 L 30.455 20.828 C 31.253 20.03 31.253 18.736 30.455 17.938 L 30.226 17.709 C 30.253 17.658 30.278 17.608 30.303 17.554 C 31.107 15.831 31.154 14.528 30.992 13.075 C 30.762 11.007 29.073 9.449 30.008 7.952 C 30.92 6.492 31.843 8.534 34.513 5.864 C 36.179 4.197 36.092 1.585 34.426 -0.081 Z  M 16.822 6.679 C 22.465 2.916 24.816 8.09 24.816 8.09 L 16.822 6.679 Z " fill="rgb(100,147,189)"/><path d=" M 6.153 13 L 10.583 17.429 L 9.129 18.883 L 4.7 14.453 L 2.521 16.632 L 6.95 21.063 L 5.497 22.516 L 1.067 18.086 L -1.113 20.265 L 3.318 24.695 L 1.865 26.147 L -2.565 21.718 L -4.951 24.104 C -6.99 26.142 -6.99 29.448 -4.951 31.486 L 2.86 39.297 C 4.899 41.336 8.205 41.336 10.243 39.297 L 24.784 24.756 L 9.59 9.563 L 6.153 13 Z " fill="rgb(100,147,189)"/></g><path d=" M 83.73 28.726 C 84.6 27.936 85.21 26.946 85.52 25.786 C 85.78 24.776 85.81 22.686 85.81 21.456 C 85.81 20.976 85.89 20.446 85.89 20.446 L 84.11 20.446 C 84.18 20.716 84.22 21.006 84.22 21.476 C 84.22 22.726 84.21 24.566 83.93 25.386 C 83.67 26.176 83.16 27.116 82.25 27.746 L 83.73 28.726 Z  M 87.92 28.776 C 88.06 28.676 88.17 28.566 88.4 28.446 C 89.51 27.876 90.97 26.766 91.78 25.736 L 90.85 24.396 C 90.23 25.276 89.38 25.996 88.63 26.306 L 88.63 21.386 C 88.63 20.896 88.71 20.446 88.71 20.446 L 86.91 20.446 C 86.91 20.446 87 20.886 87 21.376 L 87 27.116 C 87 27.426 86.96 27.736 86.91 27.946 L 87.92 28.776 Z  M 75.8 22.766 C 75.86 23.126 75.88 23.416 75.88 23.766 C 75.88 25.396 75.63 26.246 74.52 27.086 C 74.1 27.406 73.73 27.576 73.38 27.696 L 74.79 28.846 C 77.61 27.276 77.56 25.116 77.56 22.766 L 75.8 22.766 Z  M 80.72 20.516 C 80.51 20.576 79.85 20.616 79.52 20.616 L 74.33 20.616 C 73.89 20.616 73.47 20.566 73.06 20.506 L 73.06 22.176 C 73.58 22.126 73.89 22.096 74.33 22.096 L 79.27 22.096 C 79.05 22.516 78.36 23.276 77.62 23.746 L 78.87 24.746 C 79.77 24.096 80.72 22.846 81.23 22.006 C 81.33 21.846 81.56 21.556 81.68 21.406 L 80.72 20.516 Z  M 52.82 27.936 C 53.22 27.896 53.78 27.866 54.19 27.866 L 59.79 27.866 C 60.1 27.866 60.61 27.896 61 27.936 L 61 26.086 C 60.63 26.126 60.15 26.156 59.79 26.156 L 54.19 26.156 C 53.78 26.156 53.24 26.116 52.82 26.086 L 52.82 27.936 Z  M 53.65 22.986 C 54.01 22.966 54.54 22.946 54.94 22.946 L 58.99 22.946 C 59.35 22.946 59.87 22.976 60.17 22.986 L 60.17 21.226 C 59.88 21.266 59.41 21.296 58.99 21.296 L 54.93 21.296 C 54.58 21.296 54.04 21.276 53.65 21.226 L 53.65 22.986 Z  M 69.12 26.966 C 69.27 26.016 69.52 24.436 69.6 23.886 C 69.62 23.766 69.66 23.556 69.71 23.406 L 68.55 22.836 C 68.4 22.916 67.9 22.966 67.67 22.966 L 65.37 22.966 C 65.1 22.966 64.55 22.936 64.27 22.896 L 64.27 24.486 C 64.58 24.466 65.05 24.436 65.38 24.436 L 67.82 24.436 C 67.78 24.986 67.6 26.156 67.46 26.966 L 64.44 26.966 C 64.07 26.966 63.65 26.936 63.37 26.906 L 63.37 28.476 C 63.79 28.456 64.06 28.446 64.44 28.446 L 69.59 28.446 C 69.88 28.446 70.44 28.466 70.66 28.476 L 70.66 26.916 C 70.37 26.946 69.84 26.966 69.57 26.966 L 69.12 26.966 Z  M 50.46 20.906 C 50.21 20.986 49.81 21.036 49.36 21.036 L 44.05 21.036 C 43.71 21.036 43.08 20.976 42.82 20.926 L 42.82 22.626 C 43.04 22.596 43.64 22.536 44.05 22.536 L 49 22.536 C 48.55 23.306 47.74 24.306 46.79 25.086 C 46.2 24.566 45.62 24.106 45.2 23.786 L 43.92 24.826 C 44.55 25.276 45.49 26.136 46.07 26.716 C 46.73 27.386 47.59 28.356 48.03 28.946 L 49.46 27.806 C 49.07 27.346 48.53 26.746 47.99 26.206 C 49.27 25.126 50.56 23.546 51.27 22.376 C 51.36 22.236 51.5 22.086 51.66 21.896 L 50.46 20.906 Z  M 39.38 21.036 C 39.09 21.276 38.77 21.466 38.35 21.706 C 37.92 21.956 37.17 22.346 36.44 22.766 C 36.05 22.026 35.61 21.126 35.25 20.126 L 33.74 20.736 C 34.18 21.776 34.64 22.786 35.1 23.636 C 34.19 24.326 33.49 25.136 33.49 26.266 C 33.49 28.096 35.06 28.646 37.1 28.646 C 38.42 28.646 39.41 28.546 40.31 28.396 L 40.33 26.666 C 39.39 26.876 38.04 27.046 37.06 27.046 C 35.79 27.046 35.16 26.736 35.16 26.086 C 35.16 25.436 35.71 24.906 36.48 24.406 C 37.35 23.846 38.51 23.316 39.1 23.026 C 39.5 22.826 39.86 22.636 40.21 22.426 L 39.38 21.036 Z  M 24.11 22.386 C 24.93 22.446 25.8 22.496 26.86 22.496 C 27.82 22.496 29.13 22.436 29.83 22.376 L 29.83 20.766 C 29.05 20.846 27.84 20.906 26.85 20.906 C 25.78 20.906 24.85 20.866 24.11 20.786 L 24.11 22.386 L 24.11 22.386 Z  M 23.61 24.956 C 23.54 25.316 23.42 25.806 23.42 26.416 C 23.42 27.836 24.54 28.656 26.95 28.656 C 28.33 28.656 29.48 28.536 30.43 28.326 L 30.42 26.626 C 29.47 26.866 28.21 27.016 26.89 27.016 C 25.55 27.016 25.04 26.596 25.04 26.036 C 25.04 25.716 25.11 25.436 25.19 25.096 L 23.61 24.956 L 23.61 24.956 Z  M 16.87 27.416 C 16.37 27.416 16.04 27.196 16.04 26.886 C 16.04 26.686 16.23 26.496 16.55 26.496 C 16.97 26.496 17.27 26.846 17.32 27.396 C 17.18 27.406 17.03 27.416 16.87 27.416 Z  M 19.12 20.306 C 18.99 20.346 18.71 20.386 18.24 20.426 C 17.65 20.476 15.67 20.506 15.14 20.506 C 14.81 20.506 14.44 20.486 14.13 20.446 L 14.18 21.996 C 14.42 21.956 14.77 21.926 15.07 21.906 C 15.6 21.866 16.62 21.826 17.12 21.816 C 16.64 22.246 15.72 22.956 15.17 23.416 C 14.58 23.896 13.43 24.876 12.79 25.376 L 13.88 26.506 C 14.83 25.346 15.87 24.476 17.32 24.476 C 18.41 24.476 19.28 25.006 19.28 25.856 C 19.28 26.336 19.09 26.726 18.7 26.996 C 18.53 26.056 17.75 25.356 16.54 25.356 C 15.42 25.356 14.62 26.166 14.62 27.036 C 14.62 28.126 15.78 28.776 17.18 28.776 C 19.74 28.776 20.86 27.426 20.86 25.876 C 20.86 24.386 19.52 23.296 17.82 23.296 C 17.58 23.296 17.39 23.306 17.13 23.356 C 17.67 22.936 18.54 22.226 19.1 21.846 C 19.35 21.676 19.6 21.526 19.86 21.366 L 19.12 20.306 Z  M 8.13 20.886 C 7.8 20.546 7.18 20.016 6.81 19.726 L 5.7 20.496 C 6.08 20.776 6.66 21.356 6.99 21.696 L 8.13 20.886 Z  M 3.11 21.246 C 3.33 21.526 3.59 21.926 3.75 22.196 C 3.88 22.426 4 22.666 4.12 22.906 C 3.88 23.006 3.64 23.106 3.39 23.206 C 3.23 23.276 2.75 23.446 2.31 23.556 L 3 25.066 C 3.4 24.886 4 24.566 4.68 24.216 L 4.88 24.706 C 5.36 25.836 5.89 27.566 6.2 28.846 L 7.85 28.436 C 7.52 27.306 6.68 25.036 6.26 24.046 L 6.04 23.546 C 7.04 23.086 8.05 22.706 8.77 22.706 C 9.39 22.706 9.81 23.046 9.81 23.506 C 9.81 24.216 9.22 24.516 8.66 24.516 C 8.29 24.516 7.79 24.376 7.32 24.176 L 7.28 25.676 C 7.65 25.816 8.3 25.956 8.83 25.956 C 10.33 25.956 11.41 25.076 11.41 23.556 C 11.41 22.366 10.43 21.346 8.81 21.346 C 7.81 21.346 6.69 21.776 5.49 22.306 C 5.35 22.026 5.22 21.746 5.08 21.486 C 4.97 21.296 4.75 20.836 4.66 20.646 L 3.11 21.246 Z  M 91.454 9.562 L 91.454 7.588 L 87.996 7.588 L 87.996 4.522 L 85.98 4.522 L 85.98 7.588 L 82.62 7.588 L 82.62 9.562 L 85.252 9.562 C 84.51 11.34 83.39 13.076 82.13 14.21 L 82.13 7.896 C 82.676 6.944 83.152 5.95 83.53 4.998 L 81.5 4.34 C 80.744 6.356 79.442 8.344 78.084 9.59 C 78.448 10.108 79.05 11.256 79.26 11.774 C 79.54 11.494 79.834 11.186 80.114 10.836 L 80.114 17.542 L 82.13 17.542 L 82.13 14.672 C 82.564 15.064 83.068 15.638 83.362 16.044 C 84.356 15.092 85.238 13.832 85.98 12.404 L 85.98 17.57 L 87.996 17.57 L 87.996 12.222 C 88.654 13.692 89.452 15.008 90.39 15.974 C 90.726 15.428 91.412 14.7 91.902 14.336 C 90.628 13.216 89.522 11.424 88.794 9.562 L 91.454 9.562 Z  M 72.974 7.126 L 72.386 7.476 C 72.568 7.616 72.764 7.77 72.96 7.924 C 71.77 7.952 70.58 7.966 69.46 7.98 C 69.698 7.7 69.95 7.42 70.188 7.126 L 72.974 7.126 Z  M 68.592 14.042 L 68.592 13.608 L 73.394 13.608 L 73.394 14.042 L 68.592 14.042 Z  M 73.394 11.83 L 73.394 12.25 L 68.592 12.25 L 68.592 11.83 L 73.394 11.83 Z  M 77.356 9.324 C 76.81 8.666 75.83 7.84 74.92 7.126 L 77.244 7.126 L 77.244 5.362 L 72.036 5.362 L 72.036 4.256 L 69.936 4.256 L 69.936 5.362 L 64.7 5.362 L 64.7 7.126 L 67.626 7.126 C 67.458 7.42 67.29 7.714 67.108 8.008 L 65.148 8.022 L 65.204 9.842 C 67.654 9.786 71.294 9.688 74.752 9.548 C 74.976 9.786 75.186 9.996 75.354 10.206 L 66.548 10.206 L 66.548 17.584 L 68.592 17.584 L 68.592 15.414 L 73.394 15.414 L 73.394 15.736 C 73.394 15.932 73.31 16.002 73.058 16.002 C 72.848 16.016 71.896 16.016 71.294 15.974 C 71.532 16.422 71.798 17.094 71.896 17.584 C 73.044 17.584 73.926 17.57 74.584 17.332 C 75.242 17.08 75.466 16.66 75.466 15.75 L 75.466 10.346 L 75.55 10.458 L 77.356 9.324 Z  M 60.43 15.218 L 60.43 12.796 L 62.824 12.796 L 62.824 10.906 L 60.43 10.906 L 60.43 8.946 L 63.118 8.946 L 63.118 7.028 L 60.43 7.028 L 60.43 4.368 L 58.4 4.368 L 58.4 7.028 L 57.616 7.028 C 57.728 6.44 57.812 5.824 57.882 5.208 L 55.908 4.914 C 55.81 5.992 55.628 7.084 55.362 8.036 C 55.18 7.56 54.956 7.056 54.732 6.622 L 53.948 6.958 L 53.948 4.27 L 51.904 4.27 L 51.904 7.14 L 50.784 6.986 C 50.686 8.162 50.448 9.744 50.126 10.696 L 51.61 11.228 C 51.722 10.836 51.82 10.374 51.904 9.884 L 51.904 17.57 L 53.948 17.57 L 53.948 8.666 C 54.046 8.988 54.13 9.268 54.172 9.506 L 54.984 9.142 C 54.872 9.394 54.76 9.618 54.634 9.828 C 55.124 10.024 56.034 10.472 56.44 10.752 C 56.706 10.248 56.944 9.632 57.154 8.946 L 58.4 8.946 L 58.4 10.906 L 55.824 10.906 L 55.824 12.796 L 58.4 12.796 L 58.4 15.218 L 54.774 15.218 L 54.774 17.15 L 63.608 17.15 L 63.608 15.218 L 60.43 15.218 Z  M 39.864 8.792 L 41.908 8.792 L 41.908 9.478 L 39.864 9.478 L 39.864 8.792 Z  M 39.864 6.594 L 41.908 6.594 L 41.908 7.252 L 39.864 7.252 L 39.864 6.594 Z  M 46.024 7.252 L 43.966 7.252 L 43.966 6.594 L 46.024 6.594 L 46.024 7.252 Z  M 46.024 9.478 L 43.966 9.478 L 43.966 8.792 L 46.024 8.792 L 46.024 9.478 Z  M 43.616 11.9 C 43.658 11.648 43.686 11.396 43.728 11.144 L 48.166 11.144 L 48.166 4.928 L 37.82 4.928 L 37.82 11.144 L 41.586 11.144 C 41.558 11.41 41.53 11.662 41.488 11.9 L 36.98 11.9 L 36.98 13.706 L 40.774 13.706 C 40.102 14.616 38.814 15.316 36.28 15.778 C 36.686 16.212 37.176 17.024 37.344 17.556 C 40.928 16.772 42.44 15.456 43.154 13.706 L 46.416 13.706 C 46.29 14.826 46.108 15.414 45.884 15.596 C 45.716 15.736 45.534 15.75 45.254 15.75 C 44.862 15.75 43.98 15.736 43.154 15.666 C 43.504 16.17 43.77 16.954 43.812 17.514 C 44.694 17.528 45.548 17.528 46.066 17.486 C 46.71 17.43 47.186 17.29 47.62 16.856 C 48.096 16.366 48.376 15.19 48.586 12.67 C 48.614 12.418 48.642 11.9 48.642 11.9 L 43.616 11.9 Z " fill="rgb(255,255,255)"/></g></svg>